<mxfile host="Electron" modified="2024-07-11T05:51:08.292Z" agent="Mozilla/5.0 (Windows NT 10.0; Win64; x64) AppleWebKit/537.36 (KHTML, like Gecko) draw.io/24.6.4 Chrome/124.0.6367.207 Electron/30.0.6 Safari/537.36" etag="cFcmeuMnQJVp5k9pJMC3" version="24.6.4" type="device">
  <diagram name="Page-1" id="mjW-hITLLnl6jD4dxZlV">
    <mxGraphModel dx="860" dy="993" grid="1" gridSize="10" guides="1" tooltips="1" connect="1" arrows="1" fold="1" page="1" pageScale="1" pageWidth="827" pageHeight="1169" math="0" shadow="0">
      <root>
        <mxCell id="0" />
        <mxCell id="1" parent="0" />
        <mxCell id="La2wRgESGKR_WWOuSIr6-1" value="" style="rounded=1;whiteSpace=wrap;html=1;dashed=1;fillColor=none;fontSize=16;" vertex="1" parent="1">
          <mxGeometry x="1000" y="570" width="150" height="220" as="geometry" />
        </mxCell>
        <mxCell id="La2wRgESGKR_WWOuSIr6-2" value="&lt;div style=&quot;font-size: 16px;&quot;&gt;HMI 1&lt;/div&gt;" style="rounded=0;whiteSpace=wrap;html=1;fontSize=16;align=center;" vertex="1" parent="1">
          <mxGeometry x="998" y="181" width="120" height="70" as="geometry" />
        </mxCell>
        <mxCell id="La2wRgESGKR_WWOuSIr6-3" value="&lt;div style=&quot;font-size: 16px;&quot;&gt;HMI 2&lt;/div&gt;" style="rounded=0;whiteSpace=wrap;html=1;fontSize=16;align=center;" vertex="1" parent="1">
          <mxGeometry x="1191" y="181" width="120" height="70" as="geometry" />
        </mxCell>
        <mxCell id="La2wRgESGKR_WWOuSIr6-4" value="&lt;div style=&quot;font-size: 16px;&quot;&gt;Network Switch&lt;/div&gt;" style="rounded=1;whiteSpace=wrap;html=1;fontSize=16;align=center;" vertex="1" parent="1">
          <mxGeometry x="1089" y="320" width="142" height="74" as="geometry" />
        </mxCell>
        <mxCell id="La2wRgESGKR_WWOuSIr6-6" value="" style="endArrow=none;html=1;rounded=0;exitX=0.5;exitY=1;exitDx=0;exitDy=0;entryX=0.5;entryY=0;entryDx=0;entryDy=0;fontSize=16;" edge="1" parent="1" source="La2wRgESGKR_WWOuSIr6-4" target="La2wRgESGKR_WWOuSIr6-35">
          <mxGeometry width="50" height="50" relative="1" as="geometry">
            <mxPoint x="958" y="340" as="sourcePoint" />
            <mxPoint x="902.9999999999998" y="461" as="targetPoint" />
          </mxGeometry>
        </mxCell>
        <mxCell id="La2wRgESGKR_WWOuSIr6-7" value="" style="endArrow=none;html=1;rounded=0;entryX=0.5;entryY=0;entryDx=0;entryDy=0;exitX=0.5;exitY=1;exitDx=0;exitDy=0;fontSize=16;" edge="1" parent="1" source="La2wRgESGKR_WWOuSIr6-4" target="La2wRgESGKR_WWOuSIr6-36">
          <mxGeometry width="50" height="50" relative="1" as="geometry">
            <mxPoint x="948" y="330" as="sourcePoint" />
            <mxPoint x="1266" y="461" as="targetPoint" />
          </mxGeometry>
        </mxCell>
        <mxCell id="La2wRgESGKR_WWOuSIr6-10" value="" style="endArrow=none;html=1;rounded=0;exitX=0.5;exitY=0;exitDx=0;exitDy=0;entryX=0.5;entryY=1;entryDx=0;entryDy=0;fontSize=16;" edge="1" parent="1" source="La2wRgESGKR_WWOuSIr6-4" target="La2wRgESGKR_WWOuSIr6-2">
          <mxGeometry width="50" height="50" relative="1" as="geometry">
            <mxPoint x="1138" y="330" as="sourcePoint" />
            <mxPoint x="1188" y="280" as="targetPoint" />
          </mxGeometry>
        </mxCell>
        <mxCell id="La2wRgESGKR_WWOuSIr6-11" value="" style="endArrow=none;html=1;rounded=0;entryX=0.5;entryY=1;entryDx=0;entryDy=0;exitX=0.5;exitY=0;exitDx=0;exitDy=0;fontSize=16;" edge="1" parent="1" source="La2wRgESGKR_WWOuSIr6-4" target="La2wRgESGKR_WWOuSIr6-3">
          <mxGeometry width="50" height="50" relative="1" as="geometry">
            <mxPoint x="1158" y="320" as="sourcePoint" />
            <mxPoint x="1188" y="280" as="targetPoint" />
          </mxGeometry>
        </mxCell>
        <mxCell id="La2wRgESGKR_WWOuSIr6-23" value="Solar Panel Power Meter&lt;div style=&quot;font-size: 13px;&quot;&gt;(Sensor)&lt;/div&gt;" style="rounded=0;whiteSpace=wrap;html=1;fontSize=13;" vertex="1" parent="1">
          <mxGeometry x="1025.5" y="630" width="104.5" height="60" as="geometry" />
        </mxCell>
        <mxCell id="La2wRgESGKR_WWOuSIr6-24" value="Transfer Switch (Actuator)" style="rounded=0;whiteSpace=wrap;html=1;fontSize=13;" vertex="1" parent="1">
          <mxGeometry x="1025.5" y="700" width="104.5" height="60" as="geometry" />
        </mxCell>
        <mxCell id="La2wRgESGKR_WWOuSIr6-25" value="HIL 1" style="text;html=1;align=center;verticalAlign=middle;resizable=0;points=[];autosize=1;strokeColor=none;fillColor=none;fontSize=16;" vertex="1" parent="1">
          <mxGeometry x="1046" y="580" width="60" height="30" as="geometry" />
        </mxCell>
        <mxCell id="La2wRgESGKR_WWOuSIr6-27" value="" style="endArrow=none;html=1;rounded=0;entryX=0.5;entryY=1;entryDx=0;entryDy=0;fontSize=16;exitX=0.5;exitY=0;exitDx=0;exitDy=0;" edge="1" parent="1" source="La2wRgESGKR_WWOuSIr6-1" target="La2wRgESGKR_WWOuSIr6-35">
          <mxGeometry width="50" height="50" relative="1" as="geometry">
            <mxPoint x="1075" y="570" as="sourcePoint" />
            <mxPoint x="1074.75" y="525" as="targetPoint" />
          </mxGeometry>
        </mxCell>
        <mxCell id="La2wRgESGKR_WWOuSIr6-28" value="Ethernet" style="text;html=1;align=center;verticalAlign=middle;resizable=0;points=[];autosize=1;strokeColor=none;fillColor=none;fontSize=16;" vertex="1" parent="1">
          <mxGeometry x="996" y="270" width="80" height="30" as="geometry" />
        </mxCell>
        <mxCell id="La2wRgESGKR_WWOuSIr6-29" value="Ethernet" style="text;html=1;align=center;verticalAlign=middle;resizable=0;points=[];autosize=1;strokeColor=none;fillColor=none;fontSize=16;" vertex="1" parent="1">
          <mxGeometry x="996" y="410" width="80" height="30" as="geometry" />
        </mxCell>
        <mxCell id="La2wRgESGKR_WWOuSIr6-30" value="Serial RS485" style="text;html=1;align=center;verticalAlign=middle;resizable=0;points=[];autosize=1;strokeColor=none;fillColor=none;fontSize=16;" vertex="1" parent="1">
          <mxGeometry x="960" y="530" width="120" height="30" as="geometry" />
        </mxCell>
        <mxCell id="La2wRgESGKR_WWOuSIr6-35" value="&lt;div style=&quot;font-size: 16px;&quot;&gt;PLC 1&lt;/div&gt;" style="rounded=0;whiteSpace=wrap;html=1;fontSize=16;align=center;horizontal=1;" vertex="1" parent="1">
          <mxGeometry x="1020" y="455" width="112" height="69" as="geometry" />
        </mxCell>
        <mxCell id="La2wRgESGKR_WWOuSIr6-36" value="&lt;div style=&quot;font-size: 16px;&quot;&gt;PLC 2&lt;/div&gt;" style="rounded=0;whiteSpace=wrap;html=1;fontSize=16;align=center;horizontal=1;" vertex="1" parent="1">
          <mxGeometry x="1191" y="455" width="112" height="69" as="geometry" />
        </mxCell>
        <mxCell id="La2wRgESGKR_WWOuSIr6-37" value="" style="rounded=1;whiteSpace=wrap;html=1;dashed=1;fillColor=none;fontSize=16;" vertex="1" parent="1">
          <mxGeometry x="1172" y="570" width="150" height="220" as="geometry" />
        </mxCell>
        <mxCell id="La2wRgESGKR_WWOuSIr6-38" value="Solar Panel Power Meter&lt;div style=&quot;font-size: 13px;&quot;&gt;(Sensor)&lt;/div&gt;" style="rounded=0;whiteSpace=wrap;html=1;fontSize=13;" vertex="1" parent="1">
          <mxGeometry x="1197.5" y="630" width="104.5" height="60" as="geometry" />
        </mxCell>
        <mxCell id="La2wRgESGKR_WWOuSIr6-39" value="Transfer Switch (Actuator)" style="rounded=0;whiteSpace=wrap;html=1;fontSize=13;" vertex="1" parent="1">
          <mxGeometry x="1197.5" y="700" width="104.5" height="60" as="geometry" />
        </mxCell>
        <mxCell id="La2wRgESGKR_WWOuSIr6-40" value="HIL 2" style="text;html=1;align=center;verticalAlign=middle;resizable=0;points=[];autosize=1;strokeColor=none;fillColor=none;fontSize=16;" vertex="1" parent="1">
          <mxGeometry x="1218" y="580" width="60" height="30" as="geometry" />
        </mxCell>
        <mxCell id="La2wRgESGKR_WWOuSIr6-41" value="" style="endArrow=none;html=1;rounded=0;entryX=0.5;entryY=1;entryDx=0;entryDy=0;fontSize=16;exitX=0.5;exitY=0;exitDx=0;exitDy=0;" edge="1" parent="1" source="La2wRgESGKR_WWOuSIr6-37" target="La2wRgESGKR_WWOuSIr6-36">
          <mxGeometry width="50" height="50" relative="1" as="geometry">
            <mxPoint x="1085" y="580" as="sourcePoint" />
            <mxPoint x="1086" y="534" as="targetPoint" />
          </mxGeometry>
        </mxCell>
      </root>
    </mxGraphModel>
  </diagram>
</mxfile>
